<?xml version="1.0" encoding="UTF-8"?>
<svg width="700" fill="#FFFFFF" height="700" version="1.1" viewBox="0 0 700 700" xmlns="http://www.w3.org/2000/svg" xmlns:xlink="http://www.w3.org/1999/xlink">
 <g>
  <path d="m334.3 373.58c-0.81641-4.9609-3.2383-9.5117-6.9023-12.953l-43.953-41.332 16.809-124.17c8.0977-3.0938 1.6719 1.8672 128.12-136.69 8.5117-9.332 7.8516-23.805-1.4727-32.32-9.3398-8.5195-23.816-7.8281-32.324 1.4805l-115.38 126.43-42.445-6.0039c-6.4336-0.91016-12.594 0.97656-17.324 4.6992l-67.988 14.988c-7.6758 1.6914-13.941 7.2031-16.598 14.594l-29.41 81.727c-4.2773 11.891 1.8867 24.992 13.785 29.27 11.852 4.2695 24.973-1.8633 29.266-13.777l25.133-69.852 32.543-7.1719-12.164 89.848c-0.59375 4.3828 0.15625 8.6172 1.8398 12.379l-111.75 201.15c-6.1445 11.043-2.1562 24.969 8.8789 31.109 10.98 6.1016 24.938 2.2305 31.109-8.8906l107.96-194.34 58.379 54.898 19.848 120.6c2.0391 12.41 13.758 20.914 26.293 18.859 12.465-2.0547 20.91-13.824 18.855-26.289z"/>
  <path d="m600.41 162.84-51.613-10.324c-3.8242-6.5547-10.773-11.098-18.918-11.383l-34.27-1.2031c-11.199-0.39453-23.195 6.6367-23.793 26.211l-28.895 17.59-33.219-55.906c-6.457-10.863-20.508-14.43-31.355-7.9766-10.867 6.457-14.43 20.492-7.9883 31.355l45.039 75.777c6.5 10.91 20.672 14.477 31.566 7.8516l23.191-14.117-1.7812 58.664-55.469 83.895c0.10938 0.11328 0.21875 0.21094 0.32812 0.32422-7.6016 10.543-14.914 17.773-11.805 30.242l23.59 94.363c3.0508 12.191 15.395 19.719 27.746 16.648 12.254-3.0664 19.703-15.488 16.645-27.738l-21.012-84.059 1.7969-2.4922c15.176 7.1367 30.594 10.344 45.336 11.051l14.773 118.2c1.4414 11.57 11.305 20.039 22.664 20.039 13.867 0 24.426-12.129 22.73-25.715l-14.676-117.41c25.785-6.5234 43.453-17.008 43.453-17.008l-36.566-82.449 2.9648-97.676 18.387 3.6797-10.848 57.848c-5.543 29.637 39.301 38.586 44.969 8.4336l15.012-80.066c2.3203-12.312-5.7109-24.191-17.984-26.645z"/>
  <path d="m561.61 82.332c0 25.27-20.484 45.754-45.75 45.754-25.27 0-45.754-20.484-45.754-45.754s20.484-45.75 45.754-45.75c25.266 0 45.75 20.48 45.75 45.75"/>
  <path d="m298.53 90.031c0 25.27-20.484 45.754-45.754 45.754-25.266 0-45.75-20.484-45.75-45.754 0-25.266 20.484-45.75 45.75-45.75 25.27 0 45.754 20.484 45.754 45.75"/>
  <use x="70" y="728" xlink:href="#l"/>
  <use x="111.097656" y="728" xlink:href="#d"/>
  <use x="138.714844" y="728" xlink:href="#c"/>
  <use x="176.695312" y="728" xlink:href="#h"/>
  <use x="214.484375" y="728" xlink:href="#g"/>
  <use x="241.253906" y="728" xlink:href="#c"/>
  <use x="279.234375" y="728" xlink:href="#f"/>
  <use x="338.816406" y="728" xlink:href="#b"/>
  <use x="378.902344" y="728" xlink:href="#a"/>
  <use x="434.902344" y="728" xlink:href="#e"/>
  <use x="475.945312" y="728" xlink:href="#d"/>
  <use x="503.5625" y="728" xlink:href="#k"/>
  <use x="542.035156" y="728" xlink:href="#j"/>
  <use x="582.367188" y="728" xlink:href="#a"/>
  <use x="618.871094" y="728" xlink:href="#i"/>
  <use x="677.222656" y="728" xlink:href="#b"/>
 </g>
</svg>
